<mxfile host="app.diagrams.net" modified="2023-09-07T10:03:01.296Z" agent="Mozilla/5.0 (X11; Linux x86_64) AppleWebKit/537.36 (KHTML, like Gecko) Chrome/115.0.0.0 Safari/537.36" version="21.3.7" etag="4X9zpOTeZK9zmn_cvN7V" type="github">
  <diagram name="Page-1" id="oeKUwuAfV_Prwqgc12Bn">
    <mxGraphModel>
      <root>
        <mxCell id="0" />
        <mxCell id="1" parent="0" />
      </root>
    </mxGraphModel>
  </diagram>
</mxfile>
